<?xml version="1.0" encoding="utf-8"?>
<?xml-stylesheet type="text/xsl" href="rss1.xsl"?>
<rss version="2.0" xmlns:atom="http://www.w3.org/2005/Atom" xmlns:content="http://purl.org/rss/1.0/modules/content/" xmlns:dc="http://purl.org/dc/elements/1.1/" xmlns:media="http://search.yahoo.com/mrss/">
<channel>
 <title>Getty</title>
 <link>http://www.gettyimg.com/</link>
 <atom:link href="http://www.gettyimg.com/" rel="self" type="application/rss+xml" />

 
                <item>
                <title><![CDATA[【UPSCALED】Blog 27 - Hey Boy (1080p AI Upscale)]]></title>
                <link><![CDATA[https://sharemania.us/threads/blog-27-hey-boy-1080p-ai-upscale.236087/]]></link>
                <description><![CDATA[<article>
<blockquote class="messageText SelectQuoteContainer ugc baseHtml">
<div style="text-align: center"><span style="font-size: 18px"><span style="color: #ff8000"><b>Blog 27 - Hey Boy (1080p AI Upscale)</b><br>
<b><img src="https://i.imgur.com/itWfTXv.jpg" class="bbCodeImage LbImage" alt="[​IMG]" data-url="https://i.imgur.com/itWfTXv.jpg" style=""> </b></span></span>​</div>
<div class="ToggleTriggerAnchor bbCodeSpoilerContainer">
<button type="button" class="button bbCodeSpoilerButton ToggleTrigger Tooltip JsOnly" data-target="> .SpoilerTarget"><span>Spoiler: <span class="SpoilerTitle">Mediainfo</span></span></button>
<div class="SpoilerTarget bbCodeSpoilerText">
<div class="bbCodeBlock bbCodeCode">
<div class="type">Code:</div>
<pre>Video
ID                                       : 1
Format                                   : AVC
Format/Info                              : Advanced Video Codec
Format profile                           : High@L5
Format settings                          : CABAC / 2 Ref Frames
Format settings, CABAC                   : Yes
Format settings, Reference frames        : 2 frames
Format settings, GOP                     : M=3, N=30
Codec ID                                 : avc1
Codec ID/Info                            : Advanced Video Coding
Duration                                 : 3 min 24 s
Bit rate mode                            : Variable
Bit rate                                 : 51.0 Mb/s
Maximum bit rate                         : 77.8 Mb/s
Width                                    : 1 920 pixels
Height                                   : 1 080 pixels
Display aspect ratio                     : 16:9
Frame rate mode                          : Constant
Frame rate                               : 25.000 FPS
Standard                                 : Component
Color space                              : YUV
Chroma subsampling                       : 4:2:0
Bit depth                                : 8 bits
Scan type                                : Progressive
Bits/(Pixel*Frame)                       : 0.984
Stream size                              : 1.22 GiB (99%)
Language                                 : English
Encoded date                             : 2024-01-19 10:04:01 UTC
Tagged date                              : 2024-01-19 10:04:01 UTC
Color range                              : Limited
Color primaries                          : BT.709
Transfer characteristics                 : BT.709
Matrix coefficients                      : BT.709
Codec configuration box                  : avcC

Audio
ID                                       : 2
Format                                   : AAC LC
Format/Info                              : Advanced Audio Codec Low Complexity
Codec ID                                 : mp4a-40-2
Duration                                 : 3 min 24 s
Bit rate mode                            : Constant
Bit rate                                 : 256 kb/s
Channel(s)                               : 2 channels
Channel layout                           : L R
Sampling rate                            : 48.0 kHz
Frame rate                               : 46.875 FPS (1024 SPF)
Compression mode                         : Lossy
Stream size                              : 6.25 MiB (0%)
Language                                 : English
Default                                  : Yes
Alternate group                          : 1
Encoded date                             : 2024-01-19 10:04:01 UTC
Tagged date                              : 2024-01-19 10:04:01 UTC
</pre>
</div></div>
</div><br>
<div class="bbCodeBlock bbCodeVfcHH HiddenContent">
<div class="attribution type">Hidden Content:</div>
<blockquote>You must either reply or click 'Like' to see the hidden information contained here.</blockquote>
</div>
<div class="messageTextEndMarker">&nbsp;</div>
</blockquote>
</article>]]></description>
                <author><![CDATA[thrthjrshytjtsyjnyj]]></author>
                </item>

                
                <item>
                <title><![CDATA[【Requests】[REQ AUD] - Journey - Escape (2022 Remaster) [iTunes Plus AAC M4A]]]></title>
                <link><![CDATA[https://sharemania.us/threads/journey-escape-2022-remaster-itunes-plus-aac-m4a.236086/]]></link>
                <description><![CDATA[<article>
<blockquote class="messageText SelectQuoteContainer ugc baseHtml">
<img src="https://is1-ssl.mzstatic.com/image/thumb/Music122/v4/47/d6/fe/47d6fe2f-b14c-d8a7-597c-8a40e094364e/886449932795.jpg/316x316bb.webp" class="bbCodeImage LbImage" alt="[​IMG]" data-url="https://is1-ssl.mzstatic.com/image/thumb/Music122/v4/47/d6/fe/47d6fe2f-b14c-d8a7-597c-8a40e094364e/886449932795.jpg/316x316bb.webp" style=""> <br>
<a href="https://music.apple.com/us/album/escape-2022-remaster/1640102583" target="_blank" class="externalLink" rel="nofollow">https://music.apple.com/us/album/escape-2022-remaster/1640102583</a><br>
I'm looking for the 2022 remaster version in iTunes Plus format. I will be grateful for your help.
<div class="messageTextEndMarker">&nbsp;</div>
</blockquote>
</article>]]></description>
                <author><![CDATA[artpop.anything]]></author>
                </item>

                </channel></rss>